<svg width="88" height="27" viewBox="0 0 88 27" fill="none" xmlns="http://www.w3.org/2000/svg">
<path d="M5.81689 21.8813H16.7031V26H0.689941V1.11719H5.81689V21.8813ZM39.0054 14.1226C39.0054 16.5721 38.5724 18.7197 37.7065 20.5654C36.8407 22.4111 35.5988 23.8353 33.981 24.8379C32.3745 25.8405 30.5288 26.3418 28.4438 26.3418C26.3817 26.3418 24.5417 25.8462 22.9238 24.855C21.306 23.8638 20.0527 22.451 19.1641 20.6167C18.2754 18.771 17.8254 16.6519 17.814 14.2593V13.0288C17.814 10.5793 18.2526 8.42594 19.1299 6.56885C20.0186 4.70036 21.2661 3.27051 22.8726 2.2793C24.4904 1.27669 26.3361 0.775391 28.4097 0.775391C30.4832 0.775391 32.3232 1.27669 33.9297 2.2793C35.5475 3.27051 36.7951 4.70036 37.6724 6.56885C38.561 8.42594 39.0054 10.5736 39.0054 13.0117V14.1226ZM33.8101 12.9946C33.8101 10.3856 33.3429 8.40316 32.4087 7.04736C31.4744 5.69157 30.1414 5.01367 28.4097 5.01367C26.6893 5.01367 25.362 5.68587 24.4277 7.03027C23.4935 8.36328 23.0207 10.3229 23.0093 12.9092V14.1226C23.0093 16.6632 23.4764 18.6343 24.4106 20.0356C25.3449 21.437 26.6893 22.1377 28.4438 22.1377C30.1642 22.1377 31.4858 21.4655 32.4087 20.1211C33.3315 18.7653 33.7987 16.7943 33.8101 14.208V12.9946ZM62.4185 22.8555C61.4956 23.9606 60.1911 24.8208 58.5049 25.436C56.8187 26.0399 54.9502 26.3418 52.8994 26.3418C50.7461 26.3418 48.8548 25.8747 47.2256 24.9404C45.6077 23.9948 44.3545 22.6276 43.4658 20.8389C42.5885 19.0501 42.1385 16.9481 42.1157 14.5327V12.8408C42.1157 10.3571 42.5316 8.20947 43.3633 6.39795C44.2064 4.57503 45.4141 3.18506 46.9863 2.22803C48.57 1.2596 50.4214 0.775391 52.5405 0.775391C55.4914 0.775391 57.7985 1.48177 59.4619 2.89453C61.1253 4.2959 62.1108 6.34098 62.4185 9.02979H57.4282C57.2004 7.60563 56.6934 6.56315 55.9072 5.90234C55.1325 5.24154 54.0615 4.91113 52.6943 4.91113C50.9512 4.91113 49.6239 5.56624 48.7124 6.87646C47.8009 8.18669 47.3395 10.1349 47.3281 12.7212V14.3105C47.3281 16.9196 47.8237 18.8906 48.8149 20.2236C49.8062 21.5566 51.2588 22.2231 53.1729 22.2231C55.0983 22.2231 56.4712 21.813 57.2915 20.9927V16.7031H52.626V12.9263H62.4185V22.8555ZM87.0278 14.1226C87.0278 16.5721 86.5949 18.7197 85.729 20.5654C84.8631 22.4111 83.6213 23.8353 82.0034 24.8379C80.397 25.8405 78.5513 26.3418 76.4663 26.3418C74.4041 26.3418 72.5641 25.8462 70.9463 24.855C69.3285 23.8638 68.0752 22.451 67.1865 20.6167C66.2979 18.771 65.8478 16.6519 65.8364 14.2593V13.0288C65.8364 10.5793 66.2751 8.42594 67.1523 6.56885C68.041 4.70036 69.2886 3.27051 70.895 2.2793C72.5129 1.27669 74.3586 0.775391 76.4321 0.775391C78.5057 0.775391 80.3457 1.27669 81.9521 2.2793C83.57 3.27051 84.8175 4.70036 85.6948 6.56885C86.5835 8.42594 87.0278 10.5736 87.0278 13.0117V14.1226ZM81.8325 12.9946C81.8325 10.3856 81.3654 8.40316 80.4312 7.04736C79.4969 5.69157 78.1639 5.01367 76.4321 5.01367C74.7118 5.01367 73.3844 5.68587 72.4502 7.03027C71.516 8.36328 71.0431 10.3229 71.0317 12.9092V14.1226C71.0317 16.6632 71.4989 18.6343 72.4331 20.0356C73.3674 21.437 74.7118 22.1377 76.4663 22.1377C78.1867 22.1377 79.5083 21.4655 80.4312 20.1211C81.354 18.7653 81.8211 16.7943 81.8325 14.208V12.9946Z" fill="#1D1C1F"/>
</svg>
